<svg width="60" height="60" viewBox="0 0 60 60" fill="none" xmlns="http://www.w3.org/2000/svg">
<g clip-path="url(#clip0_1448_4204)">
<path d="M8.86771 4.90999V1.80452C8.86771 0.812998 9.67431 0.00639585 10.6658 0.00639585H15.5851C16.2085 0.00639585 16.7591 0.321162 17.0882 0.799755C25.0806 -1.349 33.576 0.896318 39.4424 6.76261C48.2464 15.5667 48.4554 29.7356 40.0586 38.7921L41.8097 40.497L42.861 39.4457C43.7515 38.5552 45.2011 38.5552 46.0916 39.4457C49.0957 42.4498 56.3115 49.6657 58.9909 52.345C60.3207 53.6749 60.3207 55.8386 58.9909 57.1685L57.1145 59.0449C55.8408 60.3185 53.7686 60.3185 52.4947 59.0449C52.2176 58.7677 40.6828 47.233 39.4937 46.0439C38.6032 45.1531 38.6033 43.7039 39.4937 42.8134L40.5672 41.7399L38.8166 40.0355C34.9604 43.6119 29.9865 45.7701 24.7143 46.1349C24.6936 46.1363 24.6731 46.1371 24.6527 46.1371C24.1951 46.1371 23.8093 45.7825 23.7771 45.3192C23.7437 44.8352 24.1089 44.4155 24.593 44.382C35.5575 43.6234 44.4414 34.5533 44.4414 23.0989C44.4414 8.96444 31.0002 -1.21505 17.4087 2.53343V4.79245C29.7782 0.94542 42.2982 10.2559 42.2982 23.1233C42.2982 33.6725 33.737 42.3153 23.1061 42.3153C14.0631 42.3153 9.2897 36.3421 9.10654 36.2505L9.10407 36.2477C9.09739 36.2405 9.09072 36.2333 9.08427 36.2258C5.74982 32.6591 3.91419 28.0073 3.91419 23.1233C3.91419 18.3461 5.67048 13.7909 8.86747 10.2563V7.19644C4.38493 11.208 1.77095 16.9009 1.77095 23.0985C1.77095 34.002 9.90552 43.0604 20.6535 44.2926C21.1355 44.3479 21.4814 44.7834 21.4263 45.2656C21.371 45.7477 20.936 46.0938 20.4533 46.0385C8.8254 44.7053 0.013958 34.9062 0.0138397 23.0988C0.0140724 15.8866 3.28654 9.28378 8.86771 4.90999ZM53.7374 57.8021C54.3258 58.3905 55.2833 58.3905 55.8718 57.8021L57.7482 55.9257C58.393 55.2809 58.393 54.232 57.7482 53.5872L50.9794 46.8184L46.8666 50.9312L53.7374 57.8021ZM45.624 49.6889L49.7368 45.576L48.4929 44.3321L44.3801 48.4449L45.624 49.6889ZM40.7363 44.8011L43.1374 47.2023L47.2502 43.0895L44.8488 40.6882C44.6452 40.4844 44.3071 40.4845 44.1034 40.6882L40.736 44.0555C40.5325 44.2596 40.5325 44.5973 40.7363 44.8011ZM30.9765 38.6778C32.8785 37.7115 34.581 36.4071 36.0033 34.8433V21.8176C36.0033 21.7807 35.9733 21.7507 35.9365 21.7507H30.9764L30.9765 38.6778ZM24.1927 40.5221C25.9147 40.4166 27.5964 40.0598 29.2193 39.4509C29.2193 39.2547 29.2193 15.4725 29.2193 15.155C29.2193 15.1182 29.1894 15.0882 29.1529 15.0882H24.1927V40.5221ZM24.1927 8.49265V13.3311H29.1529C30.1584 13.3311 30.9764 14.1493 30.9764 15.155V19.9934H35.9365C36.9423 19.9934 37.7604 20.8116 37.7604 21.8175V32.5592C45.2217 21.0123 36.8835 5.68835 23.1062 5.68835C21.1512 5.68835 19.2376 6.00991 17.4087 6.64273V6.66862H22.3686C23.3746 6.66862 24.1927 7.48694 24.1927 8.49265ZM17.4087 39.6038C19.0651 40.1771 20.7703 40.4846 22.4354 40.5451V8.49277C22.4354 8.45597 22.4054 8.42597 22.3686 8.42597H17.4086L17.4087 39.6038ZM5.67154 23.1233C5.67154 26.7617 6.79361 30.258 8.86771 33.1853V25.0962C8.86771 24.611 9.26099 24.2177 9.74626 24.2177C10.2315 24.2177 10.6248 24.6111 10.6248 25.0962V35.2935C12.0792 36.7864 13.8002 38.0066 15.6515 38.8855C15.6515 36.8853 15.6515 3.50526 15.6515 1.87448V1.8303C15.6515 1.79351 15.6216 1.76351 15.585 1.76351H10.6657C10.6432 1.76351 10.6247 1.7819 10.6247 1.80452C10.6247 3.1537 10.6247 20.2502 10.6247 20.9963C10.6247 21.4815 10.2314 21.8749 9.74614 21.8749C9.26087 21.8749 8.86759 21.4815 8.86759 20.9963V13.0612C6.79372 15.9885 5.67154 19.4848 5.67154 23.1233Z" fill="#356935"/>
</g>
<defs>
<clipPath id="clip0_1448_4204">
<rect width="60" height="60" fill="white" transform="matrix(-1 0 0 1 60 0)"/>
</clipPath>
</defs>
</svg>
