<svg width="60" height="60" viewBox="0 0 60 60" fill="none" xmlns="http://www.w3.org/2000/svg">
<g clip-path="url(#clip0_1448_4347)">
<path d="M34.043 9.36219C34.043 7.13294 32.2293 5.31924 30 5.31924C27.7708 5.31924 25.9571 7.13294 25.9571 9.36219C25.9571 11.5914 27.7708 13.4051 30 13.4051C32.2293 13.4051 34.043 11.5914 34.043 9.36219ZM27.7149 9.36219C27.7149 8.10219 28.74 7.07704 30 7.07704C31.26 7.07704 32.2852 8.10219 32.2852 9.36219C32.2852 10.6222 31.26 11.6473 30 11.6473C28.74 11.6473 27.7149 10.6222 27.7149 9.36219ZM56.0591 22.6866C58.0934 22.8139 60.0172 21.3346 59.9999 19.171V16.5343C59.9854 16.2824 59.9025 15.9633 59.5382 15.7606L32.1307 0.566482C30.7967 -0.173202 29.2035 -0.173202 27.8693 0.566482L16.8116 6.69677C16.387 6.93208 16.2336 7.46704 16.469 7.89161C16.7043 8.31618 17.2394 8.46969 17.6639 8.23415L28.7216 2.10386C29.5222 1.66007 30.478 1.66019 31.2785 2.10386L55.723 15.6554H4.27711L14.036 10.2452C14.4605 10.0099 14.6139 9.47492 14.3785 9.05036C14.1432 8.62579 13.6082 8.47239 13.1837 8.70782L0.462091 15.7605C0.260061 15.8788 -0.00337586 16.132 0.000139748 16.5343V19.171C-0.0186102 21.2405 1.85216 22.9125 3.9409 22.6866L7.03136 27.0367V48.6064L3.9409 52.9564H2.05091C0.920175 52.9564 0.000139748 53.8764 0.000139748 55.0071V57.9368C0.000139748 59.0675 0.920175 59.9876 2.05091 59.9876H57.9491C59.0799 59.9876 59.9999 59.0675 59.9999 57.9368V55.0071C59.9999 53.8764 59.0799 52.9564 57.9491 52.9564H56.0591L52.9687 48.6064V27.0367L56.0591 22.6866ZM3.51575 20.9288C2.5465 20.9288 1.75795 20.1402 1.75795 19.171V17.4132H58.2421V19.171C58.2421 20.1402 57.4535 20.9288 56.4843 20.9288H3.51575ZM45.0291 38.5762C45.5146 38.5762 45.908 38.1827 45.908 37.6973V27.6352H51.2109V48.0079H45.908V41.7989C45.908 41.3135 45.5146 40.92 45.0291 40.92C44.5436 40.92 44.1502 41.3135 44.1502 41.7989V48.6064L41.0598 52.9564H18.9404L15.8499 48.6064V27.0367L18.9404 22.6866H41.0599L44.1503 27.0367V37.6973C44.1502 38.1827 44.5437 38.5762 45.0291 38.5762ZM6.09726 22.6866H16.7841L14.5174 25.8774H8.36401L6.09726 22.6866ZM14.0921 27.6352V48.0079H8.78917V27.6352H14.0921ZM8.36401 49.7657H14.5173L16.784 52.9564H6.09726L8.36401 49.7657ZM57.9491 54.7142C58.1107 54.7142 58.2421 54.8456 58.2421 55.0071V57.9368C58.2421 58.0983 58.1107 58.2298 57.9491 58.2298H2.05091C1.88943 58.2298 1.75795 58.0983 1.75795 57.9368V55.0071C1.75795 54.8456 1.88943 54.7142 2.05091 54.7142H57.9491ZM53.9029 52.9564H43.2161L45.483 49.7657H51.6361L53.9029 52.9564ZM51.636 25.8774H45.4829L43.216 22.6866H53.9028L51.636 25.8774Z" fill="#00573C"/>
<path fill-rule="evenodd" clip-rule="evenodd" d="M29.166 32.1667H24.9993C24.5393 32.1667 24.166 31.7933 24.166 31.3333C24.166 30.8733 24.5393 30.5 24.9993 30.5H34.9994C35.4594 30.5 35.8327 30.8733 35.8327 31.3333C35.8327 31.7933 35.4594 32.1667 34.9994 32.1667H32.4994C32.8635 32.6508 33.1244 33.2175 33.2494 33.8333H34.9994C35.4594 33.8333 35.8327 34.2067 35.8327 34.6667C35.8327 35.1267 35.4594 35.5 34.9994 35.5H33.2494C32.8635 37.4017 31.1819 38.8333 29.166 38.8333H28.6777L33.9219 44.0775C34.2469 44.4025 34.2469 44.9308 33.9219 45.2558C33.5969 45.5808 33.0685 45.5808 32.7435 45.2558L26.0769 38.5892C25.8385 38.3508 25.7669 37.9925 25.896 37.6808C26.0252 37.37 26.3294 37.1667 26.666 37.1667H29.166C30.2544 37.1667 31.181 36.4708 31.5235 35.5H24.9993C24.5393 35.5 24.166 35.1267 24.166 34.6667C24.166 34.2067 24.5393 33.8333 24.9993 33.8333H31.5235C31.181 32.8625 30.2544 32.1667 29.166 32.1667Z" fill="#00573C"/>
</g>
<defs>
<clipPath id="clip0_1448_4347">
<rect width="60" height="60" fill="white"/>
</clipPath>
</defs>
</svg>
