<svg xmlns="http://www.w3.org/2000/svg" width="123" height="48" fill="none" xmlns:v="https://vecta.io/nano"><path d="M24 48c13.255 0 24-10.745 24-24S37.255 0 24 0 0 10.745 0 24s10.745 24 24 24z" fill="url(#A)"/><path fill-rule="evenodd" d="M34.886 45.394L15.997 30.77l2.667-6.769-4.513-6.154 1.846-5.538h19.077l12.923 11.752c-.023 9.309-5.346 17.373-13.111 21.333z" fill="#17875f"/><path d="M36.908 15.68h-5.475v21.622c-.893 0-1.772-.171-2.639-.512-.866-.315-1.3-.683-1.3-1.103V31c-1.838 1.155-3.834 1.733-5.986 1.733s-3.912-.551-5.277-1.654c-1.339-1.129-2.009-2.586-2.009-4.372 0-1.365.473-2.586 1.418-3.663-1.339-.499-2.402-1.234-3.19-2.206-.788-.998-1.182-2.179-1.182-3.544s.551-2.613 1.654-3.742c1.129-1.129 2.665-1.693 4.608-1.693 1.418 0 2.507.315 3.269.945.788.63 1.181 1.405 1.181 2.324 0 1.864-1.208 3.177-3.623 3.938-.394-.315-.683-.761-.867-1.339 1.076-.709 1.615-1.457 1.615-2.245 0-.446-.131-.801-.394-1.063-.263-.289-.683-.433-1.26-.433s-1.142.315-1.694.945-.827 1.457-.827 2.481c0 .998.276 1.838.827 2.521a4.6 4.6 0 0 0 2.166 1.378c1.155-.578 2.455-1.011 3.899-1.3.998.945 1.628 1.93 1.89 2.954-1.628.315-3.006.814-4.135 1.497-1.103.656-1.654 1.418-1.654 2.284 0 .84.289 1.523.867 2.048.604.525 1.457.788 2.56.788 1.129 0 2.245-.315 3.348-.945a9.04 9.04 0 0 0 2.796-2.481V15.68h-2.718c-.945-1.103-1.418-2.271-1.418-3.505h12.327c.814 1.05 1.221 2.219 1.221 3.505z" fill="#fff"/><path d="M66.271 18.382c.877 0 1.656.195 2.338.585.682.381 1.236.912 1.661 1.594v-6.909h3.84V33.21H70.43v-2.006c-.54.859-1.156 1.484-1.847 1.873s-1.55.585-2.577.585c-1.692 0-3.118-.682-4.279-2.046C60.576 30.243 60 28.485 60 26.341c0-2.471.567-4.416 1.701-5.833 1.142-1.417 2.666-2.126 4.571-2.126zm.824 12.091c1.072 0 1.887-.399 2.445-1.196s.837-1.829.837-3.096c0-1.771-.447-3.038-1.342-3.8-.549-.461-1.187-.691-1.913-.691-1.107 0-1.922.421-2.445 1.262-.514.833-.77 1.869-.77 3.109 0 1.337.261 2.409.784 3.215.532.797 1.333 1.196 2.405 1.196zM85.55 18.356c.895 0 1.705.155 2.432.465.735.31 1.337.784 1.807 1.422.399.54.642 1.098.731 1.674.089.567.133 1.497.133 2.79v8.503h-3.866v-8.809c0-.779-.133-1.408-.399-1.887-.345-.673-1.001-1.01-1.966-1.01-1.001 0-1.763.337-2.285 1.01-.514.664-.771 1.617-.771 2.857v7.839h-3.773V13.692h3.773v6.922c.549-.841 1.183-1.426 1.9-1.754.727-.337 1.488-.505 2.285-.505zm16.635 7.812a4.4 4.4 0 0 1-.731.372c-.239.089-.572.173-.997.253l-.85.159c-.797.142-1.369.314-1.714.518-.585.345-.877.881-.877 1.608 0 .647.177 1.116.532 1.408.363.283.802.425 1.315.425.815 0 1.563-.239 2.245-.718.691-.478 1.05-1.351 1.077-2.617v-1.408zm-2.299-1.767c.7-.089 1.2-.199 1.501-.332.541-.23.811-.589.811-1.076 0-.593-.208-1.001-.625-1.222-.407-.23-1.009-.345-1.807-.345-.895 0-1.528.221-1.9.664-.266.328-.443.771-.531 1.329h-3.654c.08-1.267.434-2.307 1.063-3.122 1.001-1.276 2.719-1.913 5.155-1.913 1.586 0 2.994.314 4.225.943s1.847 1.816 1.847 3.561v6.643l.027 1.674c.026.496.102.833.225 1.01s.31.323.559.438v.558h-4.119c-.115-.292-.195-.567-.24-.824l-.106-.877c-.522.567-1.124 1.05-1.807 1.448-.814.469-1.736.704-2.763.704-1.311 0-2.396-.372-3.255-1.116-.85-.753-1.275-1.816-1.275-3.189 0-1.78.686-3.069 2.059-3.866.753-.434 1.86-.744 3.322-.93l1.289-.16zm17.485-6.019c1.497 0 2.719.394 3.667 1.183.957.779 1.435 2.077 1.435 3.893v9.752h-3.88v-8.809c0-.762-.102-1.346-.305-1.754-.372-.744-1.081-1.116-2.126-1.116-1.284 0-2.166.545-2.644 1.634-.248.576-.372 1.311-.372 2.206v7.839h-3.773V18.754h3.653v2.113c.487-.744.948-1.28 1.382-1.608.78-.585 1.767-.877 2.963-.877z" fill="#138c61"/><defs><linearGradient id="A" x1="45" y1="40.8" x2="27.864" y2="-.652" gradientUnits="userSpaceOnUse"><stop stop-color="#138c61"/><stop offset="1" stop-color="#4dba93" stop-opacity=".99"/></linearGradient></defs></svg>