<svg width="1120" height="240" viewBox="0 0 1120 240" fill="none" xmlns="http://www.w3.org/2000/svg">
<path d="M131.494 170.608L277.576 30.2178L302.103 28.9501L337.846 38.6945L246.65 134.941L171.49 211.176L131.494 170.608Z" fill="#53BB53"/>
<path d="M152.399 204.475L82.2347 137.884L27.6325 77.0399L113.645 77.0404L163.093 118.579L200.404 156.423L152.399 204.475Z" fill="#53BB53"/>
<path d="M294.511 53.8388C294.511 59.6185 289.892 64.3039 284.193 64.3039C278.495 64.3039 273.876 59.6185 273.876 53.8388C273.876 48.0591 278.495 43.3737 284.193 43.3737C289.892 43.3737 294.511 48.0591 294.511 53.8388Z" fill="black"/>
<path fill-rule="evenodd" clip-rule="evenodd" d="M278.153 37.3987C271.651 40.3794 263.695 46.0773 253.186 56.7527L183.856 127.197L214.035 157.863L329.223 40.8273C325.357 40.2297 321.761 39.5358 318.39 38.8292C315.776 38.2812 313.399 37.7531 311.192 37.2627C305.212 35.9341 300.483 34.8833 295.679 34.4692C289.75 33.9582 284.378 34.5451 278.153 37.3987ZM228.614 172.676L377.207 21.6986H352.328C340.62 21.6986 331.128 20.1267 322.567 18.3321C320.642 17.9286 318.683 17.4922 316.705 17.0516C310.3 15.6252 303.699 14.1548 297.426 13.6141C288.568 12.8507 279.58 13.7758 269.654 18.326C260.006 22.7491 250.02 30.3467 238.584 41.9637L169.277 112.384L139.853 82.4861C127.595 70.0307 110.957 63.0315 93.6062 63.0315H0L108.923 173.709L63.4401 219.794L78.0442 234.581L123.501 188.522L168.258 234.001L214.035 187.489L259.809 234.001L428.067 63.0315H365.73L345.109 83.9617H365.73H378.312L259.809 204.374L228.614 172.676ZM199.457 172.676L169.277 142.01L138.079 173.709L168.259 204.375L199.457 172.676ZM123.501 158.896L154.699 127.197L125.249 97.2727C116.862 88.7506 105.478 83.9617 93.6062 83.9617H49.7549L123.501 158.896Z" fill="black"/>
<path d="M623.873 233.76H625.366L682.102 95.904C692.18 73.1805 694.793 70.9081 708.977 70.9081V62.9549H650.375V70.9081C666.052 70.9081 673.144 71.6656 673.144 79.9975C673.144 83.406 671.277 88.3295 668.665 95.5252L645.896 156.879L623.127 90.9805C620.887 84.5422 619.394 80.3762 619.394 77.3464C619.394 72.0443 623.873 70.9081 634.325 70.9081V62.9549H545.862V70.9081C556.313 70.9081 560.046 73.5592 567.138 90.6018L576.096 113.325L558.553 155.364L530.558 90.9805C527.199 83.7848 525.332 79.2401 525.332 76.2103C525.332 71.6656 529.438 70.9081 536.903 70.9081V62.9549H448.067V70.9081C459.265 70.9081 462.251 73.5592 469.716 90.6018L534.664 233.76H536.53L580.948 125.823L623.873 233.76Z" fill="black"/>
<path d="M712.774 93.2529V199.674C712.774 218.232 711.281 222.019 696.35 222.019V229.972H788.172V222.019C773.615 222.019 771.749 218.232 771.749 199.674V62.9549H696.35V70.9081C711.281 70.9081 712.774 74.6954 712.774 93.2529Z" fill="black"/>
<path d="M877.216 222.019C862.659 222.019 860.792 218.232 860.792 199.674V101.206C865.271 90.9805 873.11 86.0571 880.948 86.0571C895.132 86.0571 905.21 95.904 905.21 121.278V199.674C905.21 218.232 903.717 222.019 888.787 222.019V229.972H977.53V222.019C962.6 222.019 964.186 218.232 964.186 199.674V114.083C964.186 83.7848 945.522 59.1677 911.182 59.1677C887.667 59.1677 868.257 75.4528 860.792 91.738V62.9549H785.393V70.9081C800.324 70.9081 801.817 74.6954 801.817 93.2529V199.674C801.817 218.232 800.324 222.019 785.393 222.019V229.972H877.216V222.019Z" fill="black"/>
<path d="M973.022 68.6358V75.0741H988.699L987.579 181.117C987.579 212.172 1009.6 233.76 1040.21 233.76C1065.96 233.76 1086.87 218.989 1099.56 196.645L1093.96 192.1C1086.12 202.326 1080.15 208.385 1068.95 208.385C1054.39 208.385 1046.93 196.266 1046.93 178.087V75.4528H1091.72L1093.96 62.1975C1083.13 63.3336 1058.87 63.7124 1046.93 63.7124V14.3997H1043.57C1030.13 32.9572 996.911 57.274 973.022 68.6358Z" fill="black"/>
</svg>
