<svg width="50" height="50" viewBox="0 0 50 50" fill="none" xmlns="http://www.w3.org/2000/svg">
<circle cx="25" cy="25" r="24.5" stroke="#53BB53"/>
<circle cx="25" cy="25" r="20" fill="#53BB53"/>
<path d="M31.3144 20.4043L30.689 22.7121H19L19.6342 20.4043H31.3144ZM25.4391 34.04L19.2731 26.6232L19.2643 24.6677H22.312C23.0402 24.6677 23.648 24.5473 24.1354 24.3065C24.6287 24.0599 25.0016 23.7163 25.2541 23.2759C25.5125 22.8296 25.6417 22.307 25.6417 21.708C25.6417 20.8095 25.3774 20.0872 24.8489 19.5411C24.3204 18.9949 23.4748 18.7219 22.312 18.7219H19L19.6871 16H22.312C23.7919 16 25.0163 16.229 25.9852 16.6871C26.96 17.1392 27.6882 17.7793 28.1697 18.6073C28.6572 19.4354 28.9009 20.4043 28.9009 21.5142C28.9009 22.4949 28.7218 23.3699 28.3635 24.1391C28.0053 24.9084 27.4416 25.5397 26.6723 26.033C25.903 26.5263 24.8959 26.8551 23.6509 27.0196L23.5452 27.0548L29.1123 33.8814V34.04H25.4391ZM31.332 16L30.689 18.3431L21.211 18.3079L21.854 16H31.332Z" fill="white"/>
</svg>
